<svg width="900" viewBox="0 0 900 1620" xmlns="http://www.w3.org/2000/svg" style="background:#fff;font-family:Arial,sans-serif">
  <defs>
    <marker id="arrow" viewBox="0 0 10 10" refX="8" refY="5" markerWidth="6" markerHeight="6" orient="auto-start-reverse">
      <path d="M2 1L8 5L2 9" fill="none" stroke="#888" stroke-width="1.5" stroke-linecap="round" stroke-linejoin="round"/>
    </marker>
    <marker id="arr-open" viewBox="0 0 10 10" refX="9" refY="5" markerWidth="8" markerHeight="8" orient="auto-start-reverse">
      <path d="M1 1L9 5L1 9" fill="none" stroke="#aaa" stroke-width="1.5" stroke-linecap="round" stroke-linejoin="round"/>
    </marker>
  </defs>

  <!-- SYSTEM BOUNDARY -->
  <rect x="180" y="20" width="540" height="1540" rx="12" fill="none" stroke="#aaa" stroke-width="1.2" stroke-dasharray="6 3"/>
  <text x="450" y="46" text-anchor="middle" font-size="16" font-weight="600" fill="#222">Hệ thống Gia Phả</text>

  <!-- ====== ACTOR: THÀNH VIÊN ====== -->
  <circle cx="70" cy="155" r="14" fill="none" stroke="#555" stroke-width="1.5"/>
  <line x1="70" y1="169" x2="70" y2="205" stroke="#555" stroke-width="1.5"/>
  <line x1="70" y1="180" x2="48" y2="195" stroke="#555" stroke-width="1.5"/>
  <line x1="70" y1="180" x2="92" y2="195" stroke="#555" stroke-width="1.5"/>
  <line x1="70" y1="205" x2="50" y2="225" stroke="#555" stroke-width="1.5"/>
  <line x1="70" y1="205" x2="90" y2="225" stroke="#555" stroke-width="1.5"/>
  <text x="70" y="242" text-anchor="middle" font-size="13" font-weight="600" fill="#333">Thành viên</text>

  <!-- UC1 -->
  <ellipse cx="420" cy="90" rx="155" ry="22" fill="#E1F5EE" stroke="#1D9E75" stroke-width="0.8"/>
  <text x="420" y="95" text-anchor="middle" font-size="12" fill="#085041">Xem cây gia phả &amp; mối quan hệ</text>
  <line x1="98" y1="172" x2="260" y2="92" stroke="#aaa" stroke-width="0.8" marker-end="url(#arr-open)"/>

  <!-- UC2 -->
  <ellipse cx="420" cy="138" rx="155" ry="22" fill="#E1F5EE" stroke="#1D9E75" stroke-width="0.8"/>
  <text x="420" y="143" text-anchor="middle" font-size="12" fill="#085041">Xem cách xưng hô</text>
  <line x1="98" y1="177" x2="260" y2="139" stroke="#aaa" stroke-width="0.8" marker-end="url(#arr-open)"/>

  <!-- UC3 -->
  <ellipse cx="420" cy="186" rx="155" ry="22" fill="#E1F5EE" stroke="#1D9E75" stroke-width="0.8"/>
  <text x="420" y="191" text-anchor="middle" font-size="12" fill="#085041">Xem thông tin họ tộc</text>
  <line x1="98" y1="183" x2="260" y2="186" stroke="#aaa" stroke-width="0.8" marker-end="url(#arr-open)"/>

  <!-- UC4 -->
  <ellipse cx="420" cy="234" rx="155" ry="22" fill="#E1F5EE" stroke="#1D9E75" stroke-width="0.8"/>
  <text x="420" y="239" text-anchor="middle" font-size="12" fill="#085041">Xem sự kiện quá khứ &amp; ảnh</text>
  <line x1="98" y1="191" x2="260" y2="231" stroke="#aaa" stroke-width="0.8" marker-end="url(#arr-open)"/>

  <!-- UC5 -->
  <ellipse cx="420" cy="282" rx="155" ry="22" fill="#E1F5EE" stroke="#1D9E75" stroke-width="0.8"/>
  <text x="420" y="287" text-anchor="middle" font-size="12" fill="#085041">Xem sự kiện sắp tới &amp; lịch</text>
  <line x1="98" y1="200" x2="260" y2="278" stroke="#aaa" stroke-width="0.8" marker-end="url(#arr-open)"/>

  <!-- UC6 -->
  <ellipse cx="420" cy="330" rx="155" ry="22" fill="#E1F5EE" stroke="#1D9E75" stroke-width="0.8"/>
  <text x="420" y="335" text-anchor="middle" font-size="12" fill="#085041">Xem quỹ &amp; biểu đồ thu chi</text>
  <line x1="98" y1="210" x2="260" y2="326" stroke="#aaa" stroke-width="0.8" marker-end="url(#arr-open)"/>

  <!-- UC7 -->
  <ellipse cx="420" cy="378" rx="155" ry="22" fill="#E1F5EE" stroke="#1D9E75" stroke-width="0.8"/>
  <text x="420" y="383" text-anchor="middle" font-size="12" fill="#085041">Mời thành viên mới</text>
  <line x1="98" y1="218" x2="260" y2="374" stroke="#aaa" stroke-width="0.8" marker-end="url(#arr-open)"/>

  <!-- UC8 -->
  <ellipse cx="420" cy="426" rx="155" ry="22" fill="#E1F5EE" stroke="#1D9E75" stroke-width="0.8"/>
  <text x="420" y="431" text-anchor="middle" font-size="12" fill="#085041">Bật/tắt thông báo</text>
  <line x1="98" y1="223" x2="260" y2="422" stroke="#aaa" stroke-width="0.8" marker-end="url(#arr-open)"/>

  <!-- UC9 -->
  <ellipse cx="420" cy="474" rx="155" ry="22" fill="#E1F5EE" stroke="#1D9E75" stroke-width="0.8"/>
  <text x="420" y="479" text-anchor="middle" font-size="12" fill="#085041">Xóa thông tin cá nhân</text>
  <line x1="98" y1="228" x2="260" y2="470" stroke="#aaa" stroke-width="0.8" marker-end="url(#arr-open)"/>

  <!-- ====== ACTOR: NGƯỜI TẠO HỌ TỘC ====== -->
  <circle cx="70" cy="555" r="14" fill="none" stroke="#185FA5" stroke-width="1.5"/>
  <line x1="70" y1="569" x2="70" y2="605" stroke="#185FA5" stroke-width="1.5"/>
  <line x1="70" y1="580" x2="48" y2="595" stroke="#185FA5" stroke-width="1.5"/>
  <line x1="70" y1="580" x2="92" y2="595" stroke="#185FA5" stroke-width="1.5"/>
  <line x1="70" y1="605" x2="50" y2="625" stroke="#185FA5" stroke-width="1.5"/>
  <line x1="70" y1="605" x2="90" y2="625" stroke="#185FA5" stroke-width="1.5"/>
  <text x="70" y="642" text-anchor="middle" font-size="13" font-weight="600" fill="#185FA5">Người tạo</text>
  <text x="70" y="657" text-anchor="middle" font-size="13" font-weight="600" fill="#185FA5">họ tộc</text>

  <!-- generalization arrow to Quản trị -->
  <line x1="70" y1="630" x2="70" y2="720" stroke="#999" stroke-width="1" stroke-dasharray="4 3"/>
  <polygon points="64,720 70,734 76,720" fill="none" stroke="#999" stroke-width="1"/>
  <text x="26" y="680" text-anchor="middle" font-size="10" fill="#888">«extends»</text>

  <!-- UC10 -->
  <ellipse cx="420" cy="540" rx="155" ry="22" fill="#E6F1FB" stroke="#185FA5" stroke-width="0.8"/>
  <text x="420" y="545" text-anchor="middle" font-size="12" fill="#0C447C">Tạo họ tộc trong hệ thống</text>
  <line x1="98" y1="563" x2="260" y2="543" stroke="#7ab" stroke-width="0.8" marker-end="url(#arr-open)"/>

  <!-- UC11 -->
  <ellipse cx="420" cy="588" rx="155" ry="22" fill="#E6F1FB" stroke="#185FA5" stroke-width="0.8"/>
  <text x="420" y="593" text-anchor="middle" font-size="12" fill="#0C447C">Chỉ định vai trò quản trị</text>
  <line x1="98" y1="575" x2="260" y2="588" stroke="#7ab" stroke-width="0.8" marker-end="url(#arr-open)"/>

  <!-- ====== ACTOR: QUẢN TRỊ ====== -->
  <circle cx="70" cy="755" r="14" fill="none" stroke="#0F6E56" stroke-width="1.5"/>
  <line x1="70" y1="769" x2="70" y2="805" stroke="#0F6E56" stroke-width="1.5"/>
  <line x1="70" y1="780" x2="48" y2="795" stroke="#0F6E56" stroke-width="1.5"/>
  <line x1="70" y1="780" x2="92" y2="795" stroke="#0F6E56" stroke-width="1.5"/>
  <line x1="70" y1="805" x2="50" y2="825" stroke="#0F6E56" stroke-width="1.5"/>
  <line x1="70" y1="805" x2="90" y2="825" stroke="#0F6E56" stroke-width="1.5"/>
  <text x="70" y="843" text-anchor="middle" font-size="13" font-weight="600" fill="#0F6E56">Quản trị</text>
  <text x="70" y="858" text-anchor="middle" font-size="11" fill="#0F6E56">(Admin)</text>

  <!-- UC12 -->
  <ellipse cx="420" cy="680" rx="155" ry="22" fill="#E1F5EE" stroke="#1D9E75" stroke-width="0.8"/>
  <text x="420" y="685" text-anchor="middle" font-size="12" fill="#085041">Xem danh sách thành viên</text>
  <line x1="98" y1="768" x2="260" y2="684" stroke="#6ba" stroke-width="0.8" marker-end="url(#arr-open)"/>

  <!-- UC13 -->
  <ellipse cx="420" cy="728" rx="155" ry="22" fill="#E1F5EE" stroke="#1D9E75" stroke-width="0.8"/>
  <text x="420" y="733" text-anchor="middle" font-size="12" fill="#085041">Xem vai trò thành viên</text>
  <line x1="98" y1="773" x2="260" y2="729" stroke="#6ba" stroke-width="0.8" marker-end="url(#arr-open)"/>

  <!-- UC14 -->
  <ellipse cx="420" cy="776" rx="155" ry="22" fill="#E1F5EE" stroke="#1D9E75" stroke-width="0.8"/>
  <text x="420" y="781" text-anchor="middle" font-size="12" fill="#085041">Chỉnh sửa vai trò thành viên</text>
  <line x1="98" y1="778" x2="260" y2="777" stroke="#6ba" stroke-width="0.8" marker-end="url(#arr-open)"/>

  <!-- UC15 -->
  <ellipse cx="420" cy="824" rx="155" ry="22" fill="#E1F5EE" stroke="#1D9E75" stroke-width="0.8"/>
  <text x="420" y="829" text-anchor="middle" font-size="12" fill="#085041">Đặt lại trạng thái tài khoản</text>
  <line x1="98" y1="784" x2="260" y2="822" stroke="#6ba" stroke-width="0.8" marker-end="url(#arr-open)"/>

  <!-- UC16 -->
  <ellipse cx="420" cy="872" rx="155" ry="22" fill="#E1F5EE" stroke="#1D9E75" stroke-width="0.8"/>
  <text x="420" y="877" text-anchor="middle" font-size="12" fill="#085041">Nhập thành viên từ GEDCOM</text>
  <line x1="98" y1="792" x2="260" y2="870" stroke="#6ba" stroke-width="0.8" marker-end="url(#arr-open)"/>

  <!-- UC17 -->
  <ellipse cx="420" cy="920" rx="155" ry="22" fill="#E1F5EE" stroke="#1D9E75" stroke-width="0.8"/>
  <text x="420" y="925" text-anchor="middle" font-size="12" fill="#085041">Xuất thành viên ra GEDCOM</text>
  <line x1="98" y1="800" x2="260" y2="918" stroke="#6ba" stroke-width="0.8" marker-end="url(#arr-open)"/>

  <!-- ====== ACTOR: THỦ QUỸ ====== -->
  <circle cx="70" cy="1030" r="14" fill="none" stroke="#854F0B" stroke-width="1.5"/>
  <line x1="70" y1="1044" x2="70" y2="1080" stroke="#854F0B" stroke-width="1.5"/>
  <line x1="70" y1="1055" x2="48" y2="1070" stroke="#854F0B" stroke-width="1.5"/>
  <line x1="70" y1="1055" x2="92" y2="1070" stroke="#854F0B" stroke-width="1.5"/>
  <line x1="70" y1="1080" x2="50" y2="1100" stroke="#854F0B" stroke-width="1.5"/>
  <line x1="70" y1="1080" x2="90" y2="1100" stroke="#854F0B" stroke-width="1.5"/>
  <text x="70" y="1115" text-anchor="middle" font-size="13" font-weight="600" fill="#854F0B">Thủ quỹ</text>

  <!-- UC18 -->
  <ellipse cx="420" cy="1015" rx="155" ry="22" fill="#FAEEDA" stroke="#BA7517" stroke-width="0.8"/>
  <text x="420" y="1020" text-anchor="middle" font-size="12" fill="#633806">Ghi nhận đóng góp quỹ</text>
  <line x1="98" y1="1038" x2="260" y2="1018" stroke="#c96" stroke-width="0.8" marker-end="url(#arr-open)"/>

  <!-- UC19 -->
  <ellipse cx="420" cy="1063" rx="155" ry="22" fill="#FAEEDA" stroke="#BA7517" stroke-width="0.8"/>
  <text x="420" y="1068" text-anchor="middle" font-size="12" fill="#633806">Ghi nhận chi tiêu quỹ</text>
  <line x1="98" y1="1046" x2="260" y2="1063" stroke="#c96" stroke-width="0.8" marker-end="url(#arr-open)"/>

  <!-- ====== ACTOR: BIÊN TẬP ====== -->
  <circle cx="70" cy="1200" r="14" fill="none" stroke="#993556" stroke-width="1.5"/>
  <line x1="70" y1="1214" x2="70" y2="1250" stroke="#993556" stroke-width="1.5"/>
  <line x1="70" y1="1225" x2="48" y2="1240" stroke="#993556" stroke-width="1.5"/>
  <line x1="70" y1="1225" x2="92" y2="1240" stroke="#993556" stroke-width="1.5"/>
  <line x1="70" y1="1250" x2="50" y2="1270" stroke="#993556" stroke-width="1.5"/>
  <line x1="70" y1="1250" x2="90" y2="1270" stroke="#993556" stroke-width="1.5"/>
  <text x="70" y="1286" text-anchor="middle" font-size="13" font-weight="600" fill="#993556">Biên tập</text>

  <!-- UC20 -->
  <ellipse cx="420" cy="1170" rx="155" ry="22" fill="#FBEAF0" stroke="#D4537E" stroke-width="0.8"/>
  <text x="420" y="1175" text-anchor="middle" font-size="12" fill="#72243E">Chỉnh sửa sự kiện họ tộc</text>
  <line x1="98" y1="1212" x2="260" y2="1174" stroke="#b78" stroke-width="0.8" marker-end="url(#arr-open)"/>

  <!-- UC21 -->
  <ellipse cx="420" cy="1218" rx="155" ry="22" fill="#FBEAF0" stroke="#D4537E" stroke-width="0.8"/>
  <text x="420" y="1223" text-anchor="middle" font-size="12" fill="#72243E">Chỉnh sửa thông tin họ tộc</text>
  <line x1="98" y1="1220" x2="260" y2="1219" stroke="#b78" stroke-width="0.8" marker-end="url(#arr-open)"/>

  <!-- ====== INCLUDE / EXTEND ====== -->
  <!-- UC5 include bản đồ -->
  <ellipse cx="420" cy="1310" rx="150" ry="22" fill="#F1EFE8" stroke="#888780" stroke-width="0.8"/>
  <text x="420" y="1315" text-anchor="middle" font-size="12" fill="#444441">Xem bản đồ địa điểm</text>
  <line x1="420" y1="304" x2="420" y2="1287" stroke="#aaa" stroke-width="0.8" stroke-dasharray="5 3" marker-end="url(#arrow)"/>
  <text x="430" y="1280" text-anchor="start" font-size="10" fill="#888">«include»</text>

  <!-- UC5 include thông báo nhắc -->
  <ellipse cx="420" cy="1365" rx="155" ry="22" fill="#F1EFE8" stroke="#888780" stroke-width="0.8"/>
  <text x="420" y="1370" text-anchor="middle" font-size="12" fill="#444441">Gửi thông báo nhắc sự kiện</text>
  <line x1="575" y1="282" x2="700" y2="282" stroke="#aaa" stroke-width="0.8" stroke-dasharray="5 3"/>
  <line x1="700" y1="282" x2="700" y2="1365" stroke="#aaa" stroke-width="0.8" stroke-dasharray="5 3"/>
  <line x1="700" y1="1365" x2="578" y2="1365" stroke="#aaa" stroke-width="0.8" stroke-dasharray="5 3" marker-end="url(#arrow)"/>
  <text x="710" y="820" text-anchor="start" font-size="10" fill="#888">«include»</text>

  <!-- UC6 extend thông báo số dư -->
  <ellipse cx="420" cy="1420" rx="160" ry="22" fill="#F1EFE8" stroke="#888780" stroke-width="0.8"/>
  <text x="420" y="1425" text-anchor="middle" font-size="12" fill="#444441">Thông báo biến động số dư</text>
  <line x1="420" y1="352" x2="420" y2="380" stroke="#aaa" stroke-width="0.5" stroke-dasharray="5 3"/>
  <line x1="420" y1="380" x2="610" y2="380" stroke="#aaa" stroke-width="0.5" stroke-dasharray="5 3"/>
  <line x1="610" y1="380" x2="610" y2="1420" stroke="#aaa" stroke-width="0.8" stroke-dasharray="5 3"/>
  <line x1="610" y1="1420" x2="583" y2="1420" stroke="#aaa" stroke-width="0.8" stroke-dasharray="5 3" marker-end="url(#arrow)"/>
  <text x="618" y="900" text-anchor="start" font-size="10" fill="#888">«extend»</text>

  <!-- ====== LEGEND ====== -->
  <rect x="188" y="1478" width="524" height="130" rx="8" fill="none" stroke="#ccc" stroke-width="1"/>
  <text x="450" y="1500" text-anchor="middle" font-size="13" font-weight="600" fill="#333">Chú thích</text>

  <!-- row 1 -->
  <ellipse cx="230" cy="1520" rx="32" ry="13" fill="#E1F5EE" stroke="#1D9E75" stroke-width="0.8"/>
  <text x="270" y="1525" font-size="11" fill="#333">Use case: Thành viên / Quản trị</text>

  <ellipse cx="530" cy="1520" rx="32" ry="13" fill="#FBEAF0" stroke="#D4537E" stroke-width="0.8"/>
  <text x="570" y="1525" font-size="11" fill="#333">Use case: Biên tập</text>

  <!-- row 2 -->
  <ellipse cx="230" cy="1548" rx="32" ry="13" fill="#E6F1FB" stroke="#185FA5" stroke-width="0.8"/>
  <text x="270" y="1553" font-size="11" fill="#333">Use case: Người tạo họ tộc</text>

  <ellipse cx="530" cy="1548" rx="32" ry="13" fill="#F1EFE8" stroke="#888780" stroke-width="0.8"/>
  <text x="570" y="1553" font-size="11" fill="#333">Use case hệ thống</text>

  <!-- row 3 -->
  <ellipse cx="230" cy="1576" rx="32" ry="13" fill="#FAEEDA" stroke="#BA7517" stroke-width="0.8"/>
  <text x="270" y="1581" font-size="11" fill="#333">Use case: Thủ quỹ</text>

  <!-- line styles -->
  <line x1="530" y1="1576" x2="566" y2="1576" stroke="#aaa" stroke-width="1"/>
  <text x="572" y="1581" font-size="11" fill="#333">Quan hệ association</text>

  <line x1="200" y1="1600" x2="236" y2="1600" stroke="#aaa" stroke-width="1" stroke-dasharray="5 3" marker-end="url(#arrow)"/>
  <text x="242" y="1605" font-size="11" fill="#333">«include» / «extend»</text>
</svg>
